<?xml version="1.0" standalone="no"?>
<!DOCTYPE svg PUBLIC "-//W3C//DTD SVG 20010904//EN"
 "http://www.w3.org/TR/2001/REC-SVG-20010904/DTD/svg10.dtd">
<svg version="1.0" xmlns="http://www.w3.org/2000/svg"
 width="340.000000pt" height="340.000000pt" viewBox="0 0 340.000000 340.000000"
 preserveAspectRatio="xMidYMid meet">
<metadata>
Created by potrace 1.11, written by Peter Selinger 2001-2013
</metadata>
<g transform="translate(0.000000,340.000000) scale(0.100000,-0.100000)"
fill="#000000" stroke="none">
<path d="M1009 3352 c-42 -20 -118 -57 -170 -81 -52 -24 -148 -69 -214 -100
-66 -31 -155 -72 -197 -91 l-77 -35 -1 -165 c0 -91 -1 -637 -1 -1214 l0 -1049
46 -18 c25 -9 49 -18 53 -19 4 -2 12 -4 17 -6 6 -1 102 -33 215 -69 113 -37
210 -68 215 -69 6 -1 15 -4 20 -8 15 -9 55 9 62 28 3 10 7 548 7 1197 1 1038
3 1181 16 1188 20 12 279 135 455 216 258 119 245 111 217 135 -15 13 -458
163 -511 173 -11 2 -29 8 -40 14 -26 15 -25 15 -112 -27z"/>
<path d="M1885 3025 c-77 -36 -157 -74 -178 -85 -22 -11 -45 -20 -53 -20 -8 0
-14 -4 -14 -10 0 -5 -5 -10 -12 -10 -6 0 -30 -9 -52 -19 -23 -11 -86 -41 -141
-66 -105 -49 -122 -63 -102 -81 9 -9 374 -133 407 -139 3 -1 73 -23 155 -50
83 -27 152 -50 155 -50 3 0 61 -20 130 -43 l125 -42 0 -1190 c0 -1277 -3
-1209 46 -1210 10 0 70 25 134 55 65 31 139 65 164 77 25 11 93 43 151 70 58
27 123 57 145 66 22 9 55 24 73 35 l32 19 0 141 c0 164 0 1970 0 2158 l0 127
-52 17 c-29 10 -57 18 -63 20 -5 1 -17 5 -25 8 -8 3 -116 38 -240 77 -124 40
-319 103 -435 141 -115 38 -209 69 -210 69 0 -1 -63 -30 -140 -65z"/>
<path d="M1283 2276 c-17 -21 -18 -63 -17 -634 0 -336 2 -613 5 -615 4 -4 221
-76 244 -82 6 -1 17 -5 25 -8 91 -36 427 -136 441 -132 11 4 23 14 28 23 4 9
8 293 7 631 l-1 614 -100 32 c-324 106 -575 186 -594 190 -13 2 -27 -5 -38
-19z"/>
</g>
</svg>
