<svg xmlns="http://www.w3.org/2000/svg" width="40" height="40" viewBox="0 0 80 80">
  <metadata><?xpacket begin="﻿" id="W5M0MpCehiHzreSzNTczkc9d"?>
<x:xmpmeta xmlns:x="adobe:ns:meta/" x:xmptk="Adobe XMP Core 5.6-c138 79.159824, 2016/09/14-01:09:01        ">
   <rdf:RDF xmlns:rdf="http://www.w3.org/1999/02/22-rdf-syntax-ns#">
      <rdf:Description rdf:about=""/>
   </rdf:RDF>
</x:xmpmeta>               
<?xpacket end="w"?></metadata>
<defs>
    <style>
      .cls-1 {
        fill: #444;
        fill-rule: evenodd;
      }
    </style>
  </defs>
  <path id="cart" class="cls-1" d="M61.313,34H28.923l1.337,5.938h27.4a2.031,2.031,0,0,1,0,4.063H31.174l1.337,5.938h22.4a2.031,2.031,0,0,1,0,4.063H30.969a2.136,2.136,0,0,1-2.058-1.673L23.5,28.309,17.287,21.72a1.831,1.831,0,0,1,.092-2.561,1.831,1.831,0,0,1,2.528-.424l6.945,7.36a1.362,1.362,0,0,1,.388.641,2.009,2.009,0,0,1,.153.463L28.023,30h33.29A2,2,0,0,1,61.313,34ZM33.219,55.438a3.281,3.281,0,1,1-3.281,3.281A3.281,3.281,0,0,1,33.219,55.438Zm18.375,0.125a3.219,3.219,0,1,1-3.219,3.219A3.219,3.219,0,0,1,51.594,55.563Z"/>
</svg>