<?xml version="1.0" encoding="utf-8"?>
<!-- Generator: Adobe Illustrator 19.2.1, SVG Export Plug-In . SVG Version: 6.00 Build 0)  -->
<svg version="1.1" id="Layer_1" xmlns="http://www.w3.org/2000/svg" xmlns:xlink="http://www.w3.org/1999/xlink" x="0px" y="0px"
	 viewBox="0 0 26 26" style="enable-background:new 0 0 26 26;" xml:space="preserve">
<style type="text/css">
	.st0{fill:#0091FF;}
	.st1{fill:#FFFFFF;}
</style>
<g>
	<g>
		<path class="st0" d="M13,0C8.2,0,4.3,3.9,4.3,8.7c0,1.4,0.4,2.9,1,4.1l7.2,12.9c0.1,0.2,0.3,0.3,0.5,0.3s0.4-0.1,0.5-0.3l7.2-12.9
			c0.7-1.3,1-2.7,1-4.1C21.7,3.9,17.8,0,13,0z"/>
	</g>
	<path class="st1" d="M10.5,5.1V14L8,13.2v-9l2.8-1.5l2.2,0.9L10.5,5.1z M11.5,6.9v4.7l2.8,0.9V7.7L11.5,6.9z M15.3,6.6v9l2.8-1.4
		V5.3L14.2,4l-2.6,1.4L15.3,6.6z"/>
</g>
</svg>
