<?xml version="1.0" encoding="utf-8"?>
<!-- Generator: Adobe Illustrator 19.2.1, SVG Export Plug-In . SVG Version: 6.00 Build 0)  -->
<svg version="1.1" id="Capa_1" xmlns="http://www.w3.org/2000/svg" xmlns:xlink="http://www.w3.org/1999/xlink" x="0px" y="0px"
	 viewBox="0 0 53 53" style="enable-background:new 0 0 53 53;" xml:space="preserve">
<style type="text/css">
	.st0{fill:#ffffff;}
</style>
<g>
	<path class="st0" d="M49.5,3.5c-4.7-4.7-12.3-4.7-17,0l-9.2,9.2c-0.4,0.4-0.4,1,0,1.4s1,0.4,1.4,0l9.2-9.2C35.8,3,38.3,2,41,2
		c2.7,0,5.2,1,7.1,2.9S51,9.3,51,12s-1,5.2-2.9,7.1l-12,12c-3.9,3.9-10.2,3.9-14.1,0c-0.4-0.4-1-0.4-1.4,0s-0.4,1,0,1.4
		c2.3,2.3,5.4,3.5,8.5,3.5s6.1-1.2,8.5-3.5l12-12c2.3-2.3,3.5-5.3,3.5-8.5C53,8.8,51.7,5.8,49.5,3.5z"/>
	<path class="st0" d="M26.8,40.3l-7.8,7.8C17.2,49.9,14.7,51,12,51s-5.2-1-7.1-2.9C1,44.2,1,37.8,4.9,33.9l11.3-11.3
		c3.9-3.9,10.2-3.9,14.1,0c0.4,0.4,1,0.4,1.4,0s0.4-1,0-1.4c-4.7-4.7-12.3-4.7-17,0L3.5,32.5C1.2,34.8,0,37.8,0,41s1.2,6.2,3.5,8.5
		S8.8,53,12,53c3.2,0,6.2-1.2,8.5-3.5l7.8-7.8c0.4-0.4,0.4-1,0-1.4S27.2,39.9,26.8,40.3z"/>
</g>
</svg>
